<svg xmlns="http://www.w3.org/2000/svg" xmlns:xlink="http://www.w3.org/1999/xlink" width="60" height="60" viewBox="0 0 60 60"><defs><style>.a,.b{fill:#fff;}.b,.h,.o,.q,.r,.s{fill-rule:evenodd;}.c{fill:#f9f9f9;}.d{mask:url(#a);}.e,.s{fill:#1d4354;}.f{mask:url(#b);}.g{mask:url(#c);}.h{fill:#2f5a6e;}.i{mask:url(#d);}.j{mask:url(#e);}.k{mask:url(#f);}.l{mask:url(#g);}.m{mask:url(#h);}.n{mask:url(#i);}.o{fill:#2b5468;}.p{mask:url(#j);}.q{fill:#336278;}.r{fill:#6fda44;}</style><mask id="a" x="0" y="0" width="262" height="128" maskUnits="userSpaceOnUse"><rect class="a" width="60" height="60"/></mask><mask id="b" x="0" y="0" width="262" height="128" maskUnits="userSpaceOnUse"><rect class="a" width="262" height="128"/></mask><mask id="c" x="3" y="5" width="1.35" height="1.35" maskUnits="userSpaceOnUse"><polygon class="b" points="3 5 4.35 5 4.35 6.35 3 6.35 3 5"/></mask><mask id="d" x="13.6" y="5" width="1.35" height="1.35" maskUnits="userSpaceOnUse"><polygon class="b" points="13.6 5 14.95 5 14.95 6.35 13.6 6.35 13.6 5"/></mask><mask id="e" x="24.2" y="5" width="1.35" height="1.35" maskUnits="userSpaceOnUse"><polygon class="b" points="24.2 5 25.55 5 25.55 6.35 24.2 6.35 24.2 5"/></mask><mask id="f" x="34.81" y="5" width="1.35" height="1.35" maskUnits="userSpaceOnUse"><polygon class="b" points="34.81 5 36.15 5 36.15 6.35 34.81 6.35 34.81 5"/></mask><mask id="g" x="45.41" y="5" width="1.35" height="1.35" maskUnits="userSpaceOnUse"><polygon class="b" points="45.41 5 46.76 5 46.76 6.35 45.41 6.35 45.41 5"/></mask><mask id="h" x="56.01" y="5" width="1.35" height="1.35" maskUnits="userSpaceOnUse"><polygon class="b" points="56.01 5 57.36 5 57.36 6.35 56.01 6.35 56.01 5"/></mask><mask id="i" x="10" y="21.25" width="39.78" height="21.79" maskUnits="userSpaceOnUse"><polygon class="b" points="10 21.25 49.78 21.25 49.78 43.04 10 43.04 10 21.25"/></mask><mask id="j" x="10" y="17.3" width="39.78" height="4.01" maskUnits="userSpaceOnUse"><polygon class="b" points="10 17.3 49.78 17.3 49.78 21.31 10 21.31 10 17.3"/></mask></defs><title>illo-xs-sm-admin</title><rect class="c" width="60" height="60"/><g class="d"><rect class="e" width="262" height="128"/><g class="f"><g class="g"><path class="h" d="M4.35,5.67A.68.68,0,1,1,3.67,5a.67.67,0,0,1,.68.67"/></g><g class="i"><path class="h" d="M15,5.67A.68.68,0,1,1,14.28,5a.67.67,0,0,1,.67.67"/></g><g class="j"><path class="h" d="M25.55,5.67a.67.67,0,0,1-.67.68.68.68,0,1,1,0-1.35.67.67,0,0,1,.67.67"/></g><g class="k"><path class="h" d="M36.15,5.67A.67.67,0,1,1,35.48,5a.67.67,0,0,1,.67.67"/></g><g class="l"><path class="h" d="M46.76,5.67a.68.68,0,0,1-.68.68.68.68,0,1,1,.68-.68"/></g><g class="m"><path class="h" d="M57.36,5.67A.68.68,0,1,1,56.68,5a.67.67,0,0,1,.68.67"/></g><path class="h" d="M4.35,15.29a.68.68,0,1,1-.68-.67.67.67,0,0,1,.68.67"/><path class="h" d="M15,15.29a.68.68,0,1,1-.67-.67.67.67,0,0,1,.67.67"/><path class="h" d="M25.55,15.29a.67.67,0,0,1-.67.68.68.68,0,1,1,0-1.35.67.67,0,0,1,.67.67"/><path class="h" d="M36.15,15.29a.67.67,0,1,1-.67-.67.67.67,0,0,1,.67.67"/><path class="h" d="M46.76,15.29a.68.68,0,0,1-.68.68.68.68,0,1,1,.68-.68"/><path class="h" d="M57.36,15.29a.68.68,0,1,1-.68-.67.67.67,0,0,1,.68.67"/><path class="h" d="M4.35,24.92a.68.68,0,1,1-.68-.68.67.67,0,0,1,.68.68"/><path class="h" d="M15,24.92a.68.68,0,1,1-.67-.68.67.67,0,0,1,.67.68"/><path class="h" d="M25.55,24.92a.67.67,0,0,1-.67.67.68.68,0,1,1,.67-.67"/><path class="h" d="M36.15,24.92a.67.67,0,1,1-.67-.68.67.67,0,0,1,.67.68"/><path class="h" d="M46.76,24.92a.68.68,0,0,1-.68.67.68.68,0,0,1,0-1.35.68.68,0,0,1,.68.68"/><path class="h" d="M57.36,24.92a.68.68,0,1,1-.68-.68.67.67,0,0,1,.68.68"/><path class="h" d="M4.35,34.54a.68.68,0,1,1-.68-.68.67.67,0,0,1,.68.68"/><path class="h" d="M15,34.54a.68.68,0,1,1-.67-.68.67.67,0,0,1,.67.68"/><path class="h" d="M25.55,34.54a.67.67,0,0,1-.67.67.68.68,0,1,1,.67-.67"/><path class="h" d="M36.15,34.54a.67.67,0,1,1-.67-.68.67.67,0,0,1,.67.68"/><path class="h" d="M46.76,34.54a.68.68,0,0,1-.68.67.68.68,0,0,1,0-1.35.68.68,0,0,1,.68.68"/><path class="h" d="M57.36,34.54a.68.68,0,1,1-.68-.68.67.67,0,0,1,.68.68"/><path class="h" d="M4.35,44.16a.68.68,0,1,1-.68-.68.67.67,0,0,1,.68.68"/><path class="h" d="M15,44.16a.68.68,0,1,1-.67-.68.67.67,0,0,1,.67.68"/><path class="h" d="M25.55,44.16a.67.67,0,0,1-.67.67.68.68,0,1,1,.67-.67"/><path class="h" d="M36.15,44.16a.67.67,0,1,1-.67-.68.67.67,0,0,1,.67.68"/><path class="h" d="M46.76,44.16a.68.68,0,0,1-.68.67.68.68,0,0,1,0-1.35.68.68,0,0,1,.68.68"/><path class="h" d="M57.36,44.16a.68.68,0,1,1-.68-.68.67.67,0,0,1,.68.68"/><path class="h" d="M4.35,53.78a.68.68,0,1,1-.68-.68.68.68,0,0,1,.68.68"/><path class="h" d="M15,53.78a.68.68,0,0,1-1.35,0,.68.68,0,1,1,1.35,0"/><path class="h" d="M25.55,53.78a.67.67,0,0,1-.67.67.68.68,0,0,1-.68-.67.69.69,0,0,1,.68-.68.68.68,0,0,1,.67.68"/><path class="h" d="M36.15,53.78a.67.67,0,1,1-1.34,0,.67.67,0,1,1,1.34,0"/><path class="h" d="M46.76,53.78a.68.68,0,0,1-.68.67.67.67,0,0,1-.67-.67.68.68,0,0,1,.67-.68.69.69,0,0,1,.68.68"/><path class="h" d="M57.36,53.78a.68.68,0,1,1-.68-.68.68.68,0,0,1,.68.68"/></g></g><g class="n"><path class="o" d="M49.48,43H10.3a.31.31,0,0,1-.3-.3V21.25H49.78V42.74a.3.3,0,0,1-.3.3"/></g><g class="p"><path class="q" d="M49.78,21.31H10v-3.7a.31.31,0,0,1,.3-.31H49.48a.3.3,0,0,1,.3.31Z"/></g><path class="b" d="M12.49,19.36a.41.41,0,0,1-.41.42.42.42,0,1,1,0-.83.41.41,0,0,1,.41.41"/><path class="b" d="M14.56,19.36a.42.42,0,1,1-.42-.41.42.42,0,0,1,.42.41"/><path class="b" d="M16.63,19.36a.42.42,0,0,1-.42.42.42.42,0,0,1,0-.83.42.42,0,0,1,.42.41"/><path class="r" d="M24.59,33.29a2.61,2.61,0,1,1,2.61-2.61,2.61,2.61,0,0,1-2.61,2.61Zm6.55-4.52a.2.2,0,0,0-.21-.17l-1.2.13a.17.17,0,0,1-.14-.1,6.54,6.54,0,0,0-.48-.91.18.18,0,0,1,0-.22l.7-.85a.19.19,0,0,0,0-.27l-1.94-1.61a.19.19,0,0,0-.27,0l-.71.85a.19.19,0,0,1-.21.05,6.22,6.22,0,0,0-1-.31.18.18,0,0,1-.15-.16l-.1-1.1a.19.19,0,0,0-.2-.17l-2.52.23a.19.19,0,0,0-.17.21l.1,1.09a.19.19,0,0,1-.12.19,7.15,7.15,0,0,0-.91.48.18.18,0,0,1-.22,0l-.85-.71a.19.19,0,0,0-.26,0L18.67,27.4a.19.19,0,0,0,0,.27l.85.7a.17.17,0,0,1,.05.22,5.3,5.3,0,0,0-.3,1,.21.21,0,0,1-.06.1l-1.3.14a.2.2,0,0,0-.17.21L18,32.58a.18.18,0,0,0,.21.16l1.16-.12a.18.18,0,0,1,.17.11,5.27,5.27,0,0,0,.48.91.2.2,0,0,1,0,.22l-.71.85a.18.18,0,0,0,0,.26l1.95,1.62a.18.18,0,0,0,.26,0l.71-.85a.17.17,0,0,1,.22,0,5.45,5.45,0,0,0,1,.3.18.18,0,0,1,.15.17l.1,1.1a.2.2,0,0,0,.21.17l2.52-.23a.2.2,0,0,0,.17-.21l-.1-1.1a.19.19,0,0,1,.11-.19,4.93,4.93,0,0,0,.91-.48.2.2,0,0,1,.22,0l.85.71a.19.19,0,0,0,.27,0L30.5,34a.19.19,0,0,0,0-.26L29.62,33a.19.19,0,0,1-.05-.21,5.82,5.82,0,0,0,.3-1,.27.27,0,0,1,.09-.12l1.29-.14a.19.19,0,0,0,.17-.21Z"/><path class="s" d="M36.24,37.44a2,2,0,1,1,2-2,2,2,0,0,1-2,2Zm5-3.44a.15.15,0,0,0-.16-.13l-.91.1a.12.12,0,0,1-.11-.08,4.52,4.52,0,0,0-.36-.69.12.12,0,0,1,0-.16l.54-.65a.14.14,0,0,0,0-.2L38.73,31a.16.16,0,0,0-.21,0l-.53.64a.14.14,0,0,1-.17,0,4,4,0,0,0-.74-.23A.15.15,0,0,1,37,31.3l-.07-.83a.15.15,0,0,0-.16-.13l-1.91.17a.15.15,0,0,0-.13.16l.08.84a.16.16,0,0,1-.09.14A3.75,3.75,0,0,0,34,32a.12.12,0,0,1-.17,0l-.65-.53a.13.13,0,0,0-.2,0L31.74,33a.15.15,0,0,0,0,.21l.64.53a.14.14,0,0,1,0,.17,4.54,4.54,0,0,0-.23.74.12.12,0,0,1,0,.08l-1,.11a.15.15,0,0,0-.13.16l.22,1.94a.12.12,0,0,0,.15.12l.88-.09a.13.13,0,0,1,.13.08,3.26,3.26,0,0,0,.37.69.15.15,0,0,1,0,.17l-.54.65a.14.14,0,0,0,0,.2L33.75,40a.14.14,0,0,0,.2,0l.53-.64a.14.14,0,0,1,.17,0,4.87,4.87,0,0,0,.74.23.14.14,0,0,1,.12.12l.07.84a.15.15,0,0,0,.16.13l1.91-.18a.13.13,0,0,0,.13-.15l-.07-.84a.13.13,0,0,1,.09-.14,3.83,3.83,0,0,0,.69-.37.13.13,0,0,1,.16,0l.65.54a.14.14,0,0,0,.2,0l1.23-1.48a.14.14,0,0,0,0-.2l-.64-.54A.13.13,0,0,1,40,37a4,4,0,0,0,.23-.74.15.15,0,0,1,.06-.09l1-.11a.15.15,0,0,0,.13-.16Z"/></svg>