<svg xmlns="http://www.w3.org/2000/svg" xmlns:xlink="http://www.w3.org/1999/xlink" width="60" height="60" viewBox="0 0 60 60"><defs><style>.a,.b{fill:#fff;}.b,.h,.o,.q,.r,.s{fill-rule:evenodd;}.c{fill:#f9f9f9;}.d{mask:url(#a);}.e{fill:#1d4354;}.f{mask:url(#b);}.g{mask:url(#c);}.h{fill:#2f5a6e;}.i{mask:url(#d);}.j{mask:url(#e);}.k{mask:url(#f);}.l{mask:url(#g);}.m{mask:url(#h);}.n{mask:url(#i);}.o{fill:#336278;}.p{mask:url(#j);}.q{fill:#6fda44;}.r{fill:#295164;}.s{fill:#33637a;}</style><mask id="a" x="0" y="0" width="262" height="128" maskUnits="userSpaceOnUse"><rect class="a" width="60" height="60"/></mask><mask id="b" x="0" y="0" width="262" height="128" maskUnits="userSpaceOnUse"><rect class="a" width="262" height="128"/></mask><mask id="c" x="3" y="5" width="1.35" height="1.35" maskUnits="userSpaceOnUse"><polygon class="b" points="3 5 4.35 5 4.35 6.35 3 6.35 3 5"/></mask><mask id="d" x="13.6" y="5" width="1.35" height="1.35" maskUnits="userSpaceOnUse"><polygon class="b" points="13.6 5 14.95 5 14.95 6.35 13.6 6.35 13.6 5"/></mask><mask id="e" x="24.2" y="5" width="1.35" height="1.35" maskUnits="userSpaceOnUse"><polygon class="b" points="24.2 5 25.55 5 25.55 6.35 24.2 6.35 24.2 5"/></mask><mask id="f" x="34.81" y="5" width="1.35" height="1.35" maskUnits="userSpaceOnUse"><polygon class="b" points="34.81 5 36.15 5 36.15 6.35 34.81 6.35 34.81 5"/></mask><mask id="g" x="45.41" y="5" width="1.35" height="1.35" maskUnits="userSpaceOnUse"><polygon class="b" points="45.41 5 46.76 5 46.76 6.35 45.41 6.35 45.41 5"/></mask><mask id="h" x="56.01" y="5" width="1.35" height="1.35" maskUnits="userSpaceOnUse"><polygon class="b" points="56.01 5 57.36 5 57.36 6.35 56.01 6.35 56.01 5"/></mask><mask id="i" x="15.79" y="12.43" width="28.96" height="20.08" maskUnits="userSpaceOnUse"><polygon class="b" points="15.79 12.43 44.75 12.43 44.75 32.5 15.79 32.5 15.79 12.43"/></mask><mask id="j" x="13" y="30.9" width="4.25" height="12.1" maskUnits="userSpaceOnUse"><polygon class="b" points="13 30.9 17.25 30.9 17.25 43 13 43 13 30.9"/></mask></defs><title>illo-xs-sm-cs</title><rect class="c" width="60" height="60"/><g class="d"><rect class="e" width="262" height="128"/><g class="f"><g class="g"><path class="h" d="M4.35,5.67A.68.68,0,1,1,3.67,5a.67.67,0,0,1,.68.67"/></g><g class="i"><path class="h" d="M15,5.67A.68.68,0,1,1,14.28,5a.67.67,0,0,1,.67.67"/></g><g class="j"><path class="h" d="M25.55,5.67a.67.67,0,0,1-.67.68.68.68,0,1,1,0-1.35.67.67,0,0,1,.67.67"/></g><g class="k"><path class="h" d="M36.15,5.67A.67.67,0,1,1,35.48,5a.67.67,0,0,1,.67.67"/></g><g class="l"><path class="h" d="M46.76,5.67a.68.68,0,0,1-.68.68.68.68,0,1,1,.68-.68"/></g><g class="m"><path class="h" d="M57.36,5.67A.68.68,0,1,1,56.68,5a.67.67,0,0,1,.68.67"/></g><path class="h" d="M4.35,15.29a.68.68,0,1,1-.68-.67.67.67,0,0,1,.68.67"/><path class="h" d="M15,15.29a.68.68,0,1,1-.67-.67.67.67,0,0,1,.67.67"/><path class="h" d="M25.55,15.29a.67.67,0,0,1-.67.68.68.68,0,1,1,0-1.35.67.67,0,0,1,.67.67"/><path class="h" d="M36.15,15.29a.67.67,0,1,1-.67-.67.67.67,0,0,1,.67.67"/><path class="h" d="M46.76,15.29a.68.68,0,0,1-.68.68.68.68,0,1,1,.68-.68"/><path class="h" d="M57.36,15.29a.68.68,0,1,1-.68-.67.67.67,0,0,1,.68.67"/><path class="h" d="M4.35,24.92a.68.68,0,1,1-.68-.68.67.67,0,0,1,.68.68"/><path class="h" d="M15,24.92a.68.68,0,1,1-.67-.68.67.67,0,0,1,.67.68"/><path class="h" d="M25.55,24.92a.67.67,0,0,1-.67.67.68.68,0,1,1,.67-.67"/><path class="h" d="M36.15,24.92a.67.67,0,1,1-.67-.68.67.67,0,0,1,.67.68"/><path class="h" d="M46.76,24.92a.68.68,0,0,1-.68.67.68.68,0,0,1,0-1.35.68.68,0,0,1,.68.68"/><path class="h" d="M57.36,24.92a.68.68,0,1,1-.68-.68.67.67,0,0,1,.68.68"/><path class="h" d="M4.35,34.54a.68.68,0,1,1-.68-.68.67.67,0,0,1,.68.68"/><path class="h" d="M15,34.54a.68.68,0,1,1-.67-.68.67.67,0,0,1,.67.68"/><path class="h" d="M25.55,34.54a.67.67,0,0,1-.67.67.68.68,0,1,1,.67-.67"/><path class="h" d="M36.15,34.54a.67.67,0,1,1-.67-.68.67.67,0,0,1,.67.68"/><path class="h" d="M46.76,34.54a.68.68,0,0,1-.68.67.68.68,0,0,1,0-1.35.68.68,0,0,1,.68.68"/><path class="h" d="M57.36,34.54a.68.68,0,1,1-.68-.68.67.67,0,0,1,.68.68"/><path class="h" d="M4.35,44.16a.68.68,0,1,1-.68-.68.67.67,0,0,1,.68.68"/><path class="h" d="M15,44.16a.68.68,0,1,1-.67-.68.67.67,0,0,1,.67.68"/><path class="h" d="M25.55,44.16a.67.67,0,0,1-.67.67.68.68,0,1,1,.67-.67"/><path class="h" d="M36.15,44.16a.67.67,0,1,1-.67-.68.67.67,0,0,1,.67.68"/><path class="h" d="M46.76,44.16a.68.68,0,0,1-.68.67.68.68,0,0,1,0-1.35.68.68,0,0,1,.68.68"/><path class="h" d="M57.36,44.16a.68.68,0,1,1-.68-.68.67.67,0,0,1,.68.68"/><path class="h" d="M4.35,53.78a.68.68,0,1,1-.68-.68.68.68,0,0,1,.68.68"/><path class="h" d="M15,53.78a.68.68,0,0,1-1.35,0,.68.68,0,1,1,1.35,0"/><path class="h" d="M25.55,53.78a.67.67,0,0,1-.67.67.68.68,0,0,1-.68-.67.69.69,0,0,1,.68-.68.68.68,0,0,1,.67.68"/><path class="h" d="M36.15,53.78a.67.67,0,1,1-1.34,0,.67.67,0,1,1,1.34,0"/><path class="h" d="M46.76,53.78a.68.68,0,0,1-.68.67.67.67,0,0,1-.67-.67.68.68,0,0,1,.67-.68.69.69,0,0,1,.68.68"/><path class="h" d="M57.36,53.78a.68.68,0,1,1-.68-.68.68.68,0,0,1,.68.68"/></g></g><g class="n"><path class="o" d="M44.75,31.86V26.91a14.48,14.48,0,0,0-29,0v4l2,1.6V26.93a12.48,12.48,0,1,1,25,0v4.44Z"/></g><g class="p"><path class="o" d="M17.25,43H16c-2,0-3-2.71-3-6s1.12-6.05,3-6.05h1.28"/></g><path class="q" d="M29.13,47.33a.69.69,0,1,1,0-1.38l10.83,0c2.09,0,3.15-.89,3.15-2.66v-.44a.7.7,0,0,1,1.39,0v.44c0,2.54-1.7,4.05-4.54,4.05l-10.83,0Z"/><path class="r" d="M18.27,30.9H16.74V43h1.53a1.07,1.07,0,0,0,1.07-1.07V32a1.06,1.06,0,0,0-1.07-1.06"/><path class="s" d="M43.34,30.9h1.28c2,0,3,2.7,3,6.05s-1.12,6-3,6H43.34"/><path class="r" d="M42.32,43h1.54V30.9H42.32A1.06,1.06,0,0,0,41.25,32v10A1.07,1.07,0,0,0,42.32,43"/><path class="b" d="M31.64,48H28a.21.21,0,0,1-.21-.21V45.29a.21.21,0,0,1,.21-.21h3.65a.21.21,0,0,1,.22.21v2.52a.21.21,0,0,1-.22.21"/></svg>