<svg xmlns="http://www.w3.org/2000/svg" xmlns:xlink="http://www.w3.org/1999/xlink" width="60" height="60" viewBox="0 0 60 60"><defs><style>.a,.b{fill:#fff;}.b,.h,.o,.q,.r{fill-rule:evenodd;}.c{fill:#f9f9f9;}.d{mask:url(#a);}.e{fill:#1d4354;}.f{mask:url(#b);}.g{mask:url(#c);}.h{fill:#2f5a6e;}.i{mask:url(#d);}.j{mask:url(#e);}.k{mask:url(#f);}.l{mask:url(#g);}.m{mask:url(#h);}.n{mask:url(#i);}.o{fill:#2b5468;}.p{mask:url(#j);}.q{fill:#336278;}.r{fill:#6fda44;}</style><mask id="a" x="0" y="0" width="262" height="128" maskUnits="userSpaceOnUse"><rect class="a" width="60" height="60"/></mask><mask id="b" x="0" y="0" width="262" height="128" maskUnits="userSpaceOnUse"><rect class="a" width="262" height="128"/></mask><mask id="c" x="3" y="5" width="1.35" height="1.35" maskUnits="userSpaceOnUse"><polygon class="b" points="3 5 4.35 5 4.35 6.35 3 6.35 3 5"/></mask><mask id="d" x="13.6" y="5" width="1.35" height="1.35" maskUnits="userSpaceOnUse"><polygon class="b" points="13.6 5 14.95 5 14.95 6.35 13.6 6.35 13.6 5"/></mask><mask id="e" x="24.2" y="5" width="1.35" height="1.35" maskUnits="userSpaceOnUse"><polygon class="b" points="24.2 5 25.55 5 25.55 6.35 24.2 6.35 24.2 5"/></mask><mask id="f" x="34.81" y="5" width="1.35" height="1.35" maskUnits="userSpaceOnUse"><polygon class="b" points="34.81 5 36.15 5 36.15 6.35 34.81 6.35 34.81 5"/></mask><mask id="g" x="45.41" y="5" width="1.35" height="1.35" maskUnits="userSpaceOnUse"><polygon class="b" points="45.41 5 46.76 5 46.76 6.35 45.41 6.35 45.41 5"/></mask><mask id="h" x="56.01" y="5" width="1.35" height="1.35" maskUnits="userSpaceOnUse"><polygon class="b" points="56.01 5 57.36 5 57.36 6.35 56.01 6.35 56.01 5"/></mask><mask id="i" x="10" y="21.25" width="39.78" height="21.79" maskUnits="userSpaceOnUse"><polygon class="b" points="10 21.25 49.78 21.25 49.78 43.04 10 43.04 10 21.25"/></mask><mask id="j" x="10" y="17.3" width="39.78" height="4.01" maskUnits="userSpaceOnUse"><polygon class="b" points="10 17.3 49.78 17.3 49.78 21.31 10 21.31 10 17.3"/></mask></defs><title>illo-xs-sm-data</title><rect class="c" width="60" height="60"/><g class="d"><rect class="e" width="262" height="128"/><g class="f"><g class="g"><path class="h" d="M4.35,5.67A.68.68,0,1,1,3.67,5a.67.67,0,0,1,.68.67"/></g><g class="i"><path class="h" d="M15,5.67A.68.68,0,1,1,14.28,5a.67.67,0,0,1,.67.67"/></g><g class="j"><path class="h" d="M25.55,5.67a.67.67,0,0,1-.67.68.68.68,0,1,1,0-1.35.67.67,0,0,1,.67.67"/></g><g class="k"><path class="h" d="M36.15,5.67A.67.67,0,1,1,35.48,5a.67.67,0,0,1,.67.67"/></g><g class="l"><path class="h" d="M46.76,5.67a.68.68,0,0,1-.68.68.68.68,0,1,1,.68-.68"/></g><g class="m"><path class="h" d="M57.36,5.67A.68.68,0,1,1,56.68,5a.67.67,0,0,1,.68.67"/></g><path class="h" d="M4.35,15.29a.68.68,0,1,1-.68-.67.67.67,0,0,1,.68.67"/><path class="h" d="M15,15.29a.68.68,0,1,1-.67-.67.67.67,0,0,1,.67.67"/><path class="h" d="M25.55,15.29a.67.67,0,0,1-.67.68.68.68,0,1,1,0-1.35.67.67,0,0,1,.67.67"/><path class="h" d="M36.15,15.29a.67.67,0,1,1-.67-.67.67.67,0,0,1,.67.67"/><path class="h" d="M46.76,15.29a.68.68,0,0,1-.68.68.68.68,0,1,1,.68-.68"/><path class="h" d="M57.36,15.29a.68.68,0,1,1-.68-.67.67.67,0,0,1,.68.67"/><path class="h" d="M4.35,24.92a.68.68,0,1,1-.68-.68.67.67,0,0,1,.68.68"/><path class="h" d="M15,24.92a.68.68,0,1,1-.67-.68.67.67,0,0,1,.67.68"/><path class="h" d="M25.55,24.92a.67.67,0,0,1-.67.67.68.68,0,1,1,.67-.67"/><path class="h" d="M36.15,24.92a.67.67,0,1,1-.67-.68.67.67,0,0,1,.67.68"/><path class="h" d="M46.76,24.92a.68.68,0,0,1-.68.67.68.68,0,0,1,0-1.35.68.68,0,0,1,.68.68"/><path class="h" d="M57.36,24.92a.68.68,0,1,1-.68-.68.67.67,0,0,1,.68.68"/><path class="h" d="M4.35,34.54a.68.68,0,1,1-.68-.68.67.67,0,0,1,.68.68"/><path class="h" d="M15,34.54a.68.68,0,1,1-.67-.68.67.67,0,0,1,.67.68"/><path class="h" d="M25.55,34.54a.67.67,0,0,1-.67.67.68.68,0,1,1,.67-.67"/><path class="h" d="M36.15,34.54a.67.67,0,1,1-.67-.68.67.67,0,0,1,.67.68"/><path class="h" d="M46.76,34.54a.68.68,0,0,1-.68.67.68.68,0,0,1,0-1.35.68.68,0,0,1,.68.68"/><path class="h" d="M57.36,34.54a.68.68,0,1,1-.68-.68.67.67,0,0,1,.68.68"/><path class="h" d="M4.35,44.16a.68.68,0,1,1-.68-.68.67.67,0,0,1,.68.68"/><path class="h" d="M15,44.16a.68.68,0,1,1-.67-.68.67.67,0,0,1,.67.68"/><path class="h" d="M25.55,44.16a.67.67,0,0,1-.67.67.68.68,0,1,1,.67-.67"/><path class="h" d="M36.15,44.16a.67.67,0,1,1-.67-.68.67.67,0,0,1,.67.68"/><path class="h" d="M46.76,44.16a.68.68,0,0,1-.68.67.68.68,0,0,1,0-1.35.68.68,0,0,1,.68.68"/><path class="h" d="M57.36,44.16a.68.68,0,1,1-.68-.68.67.67,0,0,1,.68.68"/><path class="h" d="M4.35,53.78a.68.68,0,1,1-.68-.68.68.68,0,0,1,.68.68"/><path class="h" d="M15,53.78a.68.68,0,0,1-1.35,0,.68.68,0,1,1,1.35,0"/><path class="h" d="M25.55,53.78a.67.67,0,0,1-.67.67.68.68,0,0,1-.68-.67.69.69,0,0,1,.68-.68.68.68,0,0,1,.67.68"/><path class="h" d="M36.15,53.78a.67.67,0,1,1-1.34,0,.67.67,0,1,1,1.34,0"/><path class="h" d="M46.76,53.78a.68.68,0,0,1-.68.67.67.67,0,0,1-.67-.67.68.68,0,0,1,.67-.68.69.69,0,0,1,.68.68"/><path class="h" d="M57.36,53.78a.68.68,0,1,1-.68-.68.68.68,0,0,1,.68.68"/></g></g><g class="n"><path class="o" d="M49.48,43H10.3a.31.31,0,0,1-.3-.3V21.25H49.78V42.74a.3.3,0,0,1-.3.3"/></g><g class="p"><path class="q" d="M49.78,21.31H10v-3.7a.31.31,0,0,1,.3-.31H49.48a.3.3,0,0,1,.3.31Z"/></g><path class="b" d="M12.49,19.36a.41.41,0,0,1-.41.42.42.42,0,1,1,0-.83.41.41,0,0,1,.41.41"/><path class="b" d="M14.56,19.36a.42.42,0,1,1-.42-.41.42.42,0,0,1,.42.41"/><path class="b" d="M16.63,19.36a.42.42,0,0,1-.42.42.42.42,0,0,1,0-.83.42.42,0,0,1,.42.41"/><path class="b" d="M21.2,35.56a.2.2,0,0,1-.15-.06.22.22,0,0,1,0-.3l6.23-6.43a.23.23,0,0,1,.27,0l5.62,3.52,5.49-5.45a.22.22,0,0,1,.3,0,.2.2,0,0,1,0,.29l-5.6,5.57a.21.21,0,0,1-.26,0l-5.62-3.52-6.12,6.31a.19.19,0,0,1-.15.07"/><path class="r" d="M37.32,27.18a1.27,1.27,0,1,1,1.26,1.27,1.26,1.26,0,0,1-1.26-1.27"/><path class="r" d="M31.74,32.25A1.27,1.27,0,1,1,33,33.52a1.27,1.27,0,0,1-1.27-1.27"/><path class="r" d="M26.17,29.09a1.27,1.27,0,1,1,1.26,1.27,1.26,1.26,0,0,1-1.26-1.27"/><path class="r" d="M19.93,35.35a1.27,1.27,0,1,1,1.27,1.27,1.27,1.27,0,0,1-1.27-1.27"/></svg>