<svg xmlns="http://www.w3.org/2000/svg" xmlns:xlink="http://www.w3.org/1999/xlink" width="60" height="60" viewBox="0 0 60 60"><defs><style>.a,.b{fill:#fff;}.b,.h,.o,.q{fill-rule:evenodd;}.c{fill:#f9f9f9;}.d{mask:url(#a);}.e{fill:#1d4354;}.f{mask:url(#b);}.g{mask:url(#c);}.h{fill:#2f5a6e;}.i{mask:url(#d);}.j{mask:url(#e);}.k{mask:url(#f);}.l{mask:url(#g);}.m{mask:url(#h);}.n{mask:url(#i);}.o{fill:#2b5468;}.p{mask:url(#j);}.q{fill:#6fda44;}</style><mask id="a" x="0" y="0" width="262" height="128" maskUnits="userSpaceOnUse"><rect class="a" width="60" height="60"/></mask><mask id="b" x="0" y="0" width="262" height="128" maskUnits="userSpaceOnUse"><rect class="a" width="262" height="128"/></mask><mask id="c" x="3" y="5" width="1.35" height="1.35" maskUnits="userSpaceOnUse"><polygon class="b" points="3 5 4.35 5 4.35 6.35 3 6.35 3 5"/></mask><mask id="d" x="13.6" y="5" width="1.35" height="1.35" maskUnits="userSpaceOnUse"><polygon class="b" points="13.6 5 14.95 5 14.95 6.35 13.6 6.35 13.6 5"/></mask><mask id="e" x="24.2" y="5" width="1.35" height="1.35" maskUnits="userSpaceOnUse"><polygon class="b" points="24.2 5 25.55 5 25.55 6.35 24.2 6.35 24.2 5"/></mask><mask id="f" x="34.81" y="5" width="1.35" height="1.35" maskUnits="userSpaceOnUse"><polygon class="b" points="34.81 5 36.15 5 36.15 6.35 34.81 6.35 34.81 5"/></mask><mask id="g" x="45.41" y="5" width="1.35" height="1.35" maskUnits="userSpaceOnUse"><polygon class="b" points="45.41 5 46.76 5 46.76 6.35 45.41 6.35 45.41 5"/></mask><mask id="h" x="56.01" y="5" width="1.35" height="1.35" maskUnits="userSpaceOnUse"><polygon class="b" points="56.01 5 57.36 5 57.36 6.35 56.01 6.35 56.01 5"/></mask><mask id="i" x="18" y="13.41" width="24.63" height="28.34" maskUnits="userSpaceOnUse"><polygon class="b" points="18 13.41 42.63 13.41 42.63 41.75 18 41.75 18 13.41"/></mask><mask id="j" x="18" y="13.41" width="24.62" height="34.57" maskUnits="userSpaceOnUse"><polygon class="b" points="18 47.97 42.63 47.97 42.63 13.41 18 13.41 18 47.97"/></mask></defs><title>illo-xs-sm-design</title><rect class="c" width="60" height="60"/><g class="d"><rect class="e" width="262" height="128"/><g class="f"><g class="g"><path class="h" d="M4.35,5.67A.68.68,0,1,1,3.67,5a.67.67,0,0,1,.68.67"/></g><g class="i"><path class="h" d="M15,5.67A.68.68,0,1,1,14.28,5a.67.67,0,0,1,.67.67"/></g><g class="j"><path class="h" d="M25.55,5.67a.67.67,0,0,1-.67.68.68.68,0,1,1,0-1.35.67.67,0,0,1,.67.67"/></g><g class="k"><path class="h" d="M36.15,5.67A.67.67,0,1,1,35.48,5a.67.67,0,0,1,.67.67"/></g><g class="l"><path class="h" d="M46.76,5.67a.68.68,0,0,1-.68.68.68.68,0,1,1,.68-.68"/></g><g class="m"><path class="h" d="M57.36,5.67A.68.68,0,1,1,56.68,5a.67.67,0,0,1,.68.67"/></g><path class="h" d="M4.35,15.29a.68.68,0,1,1-.68-.67.67.67,0,0,1,.68.67"/><path class="h" d="M15,15.29a.68.68,0,1,1-.67-.67.67.67,0,0,1,.67.67"/><path class="h" d="M25.55,15.29a.67.67,0,0,1-.67.68.68.68,0,1,1,0-1.35.67.67,0,0,1,.67.67"/><path class="h" d="M36.15,15.29a.67.67,0,1,1-.67-.67.67.67,0,0,1,.67.67"/><path class="h" d="M46.76,15.29a.68.68,0,0,1-.68.68.68.68,0,1,1,.68-.68"/><path class="h" d="M57.36,15.29a.68.68,0,1,1-.68-.67.67.67,0,0,1,.68.67"/><path class="h" d="M4.35,24.92a.68.68,0,1,1-.68-.68.67.67,0,0,1,.68.68"/><path class="h" d="M15,24.92a.68.68,0,1,1-.67-.68.67.67,0,0,1,.67.68"/><path class="h" d="M25.55,24.92a.67.67,0,0,1-.67.67.68.68,0,1,1,.67-.67"/><path class="h" d="M36.15,24.92a.67.67,0,1,1-.67-.68.67.67,0,0,1,.67.68"/><path class="h" d="M46.76,24.92a.68.68,0,0,1-.68.67.68.68,0,0,1,0-1.35.68.68,0,0,1,.68.68"/><path class="h" d="M57.36,24.92a.68.68,0,1,1-.68-.68.67.67,0,0,1,.68.68"/><path class="h" d="M4.35,34.54a.68.68,0,1,1-.68-.68.67.67,0,0,1,.68.68"/><path class="h" d="M15,34.54a.68.68,0,1,1-.67-.68.67.67,0,0,1,.67.68"/><path class="h" d="M25.55,34.54a.67.67,0,0,1-.67.67.68.68,0,1,1,.67-.67"/><path class="h" d="M36.15,34.54a.67.67,0,1,1-.67-.68.67.67,0,0,1,.67.68"/><path class="h" d="M46.76,34.54a.68.68,0,0,1-.68.67.68.68,0,0,1,0-1.35.68.68,0,0,1,.68.68"/><path class="h" d="M57.36,34.54a.68.68,0,1,1-.68-.68.67.67,0,0,1,.68.68"/><path class="h" d="M4.35,44.16a.68.68,0,1,1-.68-.68.67.67,0,0,1,.68.68"/><path class="h" d="M15,44.16a.68.68,0,1,1-.67-.68.67.67,0,0,1,.67.68"/><path class="h" d="M25.55,44.16a.67.67,0,0,1-.67.67.68.68,0,1,1,.67-.67"/><path class="h" d="M36.15,44.16a.67.67,0,1,1-.67-.68.67.67,0,0,1,.67.68"/><path class="h" d="M46.76,44.16a.68.68,0,0,1-.68.67.68.68,0,0,1,0-1.35.68.68,0,0,1,.68.68"/><path class="h" d="M57.36,44.16a.68.68,0,1,1-.68-.68.67.67,0,0,1,.68.68"/><path class="h" d="M4.35,53.78a.68.68,0,1,1-.68-.68.68.68,0,0,1,.68.68"/><path class="h" d="M15,53.78a.68.68,0,0,1-1.35,0,.68.68,0,1,1,1.35,0"/><path class="h" d="M25.55,53.78a.67.67,0,0,1-.67.67.68.68,0,0,1-.68-.67.69.69,0,0,1,.68-.68.68.68,0,0,1,.67.68"/><path class="h" d="M36.15,53.78a.67.67,0,1,1-1.34,0,.67.67,0,1,1,1.34,0"/><path class="h" d="M46.76,53.78a.68.68,0,0,1-.68.67.67.67,0,0,1-.67-.67.68.68,0,0,1,.67-.68.69.69,0,0,1,.68.68"/><path class="h" d="M57.36,53.78a.68.68,0,1,1-.68-.68.68.68,0,0,1,.68.68"/></g></g><g class="n"><path class="o" d="M42.63,25.72a12.31,12.31,0,1,0-18,10.91,1.24,1.24,0,0,1,.55.88L26,40.94a1,1,0,0,0,1,.81h6.63a1,1,0,0,0,1-.81l.85-3.43a1.15,1.15,0,0,1,.55-.88,12.3,12.3,0,0,0,6.63-10.91"/></g><g class="p"><polygon class="q" points="26.4 45.26 34.23 45.26 34.23 43.43 26.4 43.43 26.4 45.26"/></g><g class="p"><polygon class="q" points="26.4 47.97 34.23 47.97 34.23 46.14 26.4 46.14 26.4 47.97"/></g><g class="p"><path class="b" d="M30.84,27.82A2.69,2.69,0,1,1,33,25.71a2.69,2.69,0,0,1-2.11,2.11Zm6.23-4.33a.46.46,0,0,0-.51-.41l-1,.11-.14-.09a5.46,5.46,0,0,0-.5-1,.17.17,0,0,1,0-.22l.51-.61a.49.49,0,0,0,0-.72l-1.58-1.31a.46.46,0,0,0-.65.06l-.56.66a.19.19,0,0,1-.22.06,5.66,5.66,0,0,0-1-.32.18.18,0,0,1-.15-.17l-.08-.85a.47.47,0,0,0-.5-.43l-2.05.19a.46.46,0,0,0-.42.51l.08.86a.21.21,0,0,1-.12.19,6,6,0,0,0-.94.49.17.17,0,0,1-.22,0l-.61-.5a.49.49,0,0,0-.72,0L24.4,21.61a.46.46,0,0,0,.06.66l.66.55a.19.19,0,0,1,.06.22,4.92,4.92,0,0,0-.33,1.07l0,0-1,.11a.49.49,0,0,0-.49.52l.23,2.09a.47.47,0,0,0,.52.41l.91-.1a.18.18,0,0,1,.18.12,5.87,5.87,0,0,0,.49.93.2.2,0,0,1,0,.23l-.55.66a.46.46,0,0,0,.06.66l1.58,1.31a.45.45,0,0,0,.65-.06l.56-.66a.17.17,0,0,1,.22-.05,5.64,5.64,0,0,0,1,.31.2.2,0,0,1,.15.17l.08.86a.46.46,0,0,0,.51.42l2-.19a.45.45,0,0,0,.42-.5l-.07-.86a.19.19,0,0,1,.12-.2,5.5,5.5,0,0,0,.93-.49.18.18,0,0,1,.22,0l.61.51a.49.49,0,0,0,.72,0l1.31-1.57a.46.46,0,0,0-.06-.66l-.66-.55a.19.19,0,0,1-.05-.23,6.08,6.08,0,0,0,.32-1l.08-.07,1-.12a.46.46,0,0,0,.41-.51Z"/></g></svg>