<svg xmlns="http://www.w3.org/2000/svg" xmlns:xlink="http://www.w3.org/1999/xlink" width="60" height="60" viewBox="0 0 60 60"><defs><style>.a,.b{fill:#fff;}.b,.h,.n,.p,.q,.r,.s,.t{fill-rule:evenodd;}.c{fill:#f9f9f9;}.d{mask:url(#a);}.e,.q{fill:#1d4354;}.f{mask:url(#b);}.g{mask:url(#c);}.h{fill:#2f5a6e;}.i{mask:url(#d);}.j{mask:url(#e);}.k{mask:url(#f);}.l{mask:url(#g);}.m{mask:url(#h);}.n{fill:#2b5468;}.o{mask:url(#i);}.p{fill:#336278;}.r{fill:#f3756c;}.s{fill:#ffcc0d;}.t{fill:#6fda44;}.u{mask:url(#j);}.v{mask:url(#k);}</style><mask id="a" x="0" y="0" width="262" height="128" maskUnits="userSpaceOnUse"><rect class="a" width="60" height="60"/></mask><mask id="b" x="0" y="0" width="262" height="128" maskUnits="userSpaceOnUse"><rect class="a" width="262" height="128"/></mask><mask id="c" x="3" y="5" width="1.35" height="1.35" maskUnits="userSpaceOnUse"><polygon class="b" points="3 5 4.35 5 4.35 6.35 3 6.35 3 5"/></mask><mask id="d" x="13.6" y="5" width="1.35" height="1.35" maskUnits="userSpaceOnUse"><polygon class="b" points="13.6 5 14.95 5 14.95 6.35 13.6 6.35 13.6 5"/></mask><mask id="e" x="24.2" y="5" width="1.35" height="1.35" maskUnits="userSpaceOnUse"><polygon class="b" points="24.2 5 25.55 5 25.55 6.35 24.2 6.35 24.2 5"/></mask><mask id="f" x="34.81" y="5" width="1.35" height="1.35" maskUnits="userSpaceOnUse"><polygon class="b" points="34.81 5 36.15 5 36.15 6.35 34.81 6.35 34.81 5"/></mask><mask id="g" x="45.41" y="5" width="1.35" height="1.35" maskUnits="userSpaceOnUse"><polygon class="b" points="45.41 5 46.76 5 46.76 6.35 45.41 6.35 45.41 5"/></mask><mask id="h" x="56.01" y="5" width="1.35" height="1.35" maskUnits="userSpaceOnUse"><polygon class="b" points="56.01 5 57.36 5 57.36 6.35 56.01 6.35 56.01 5"/></mask><mask id="i" x="10" y="16.3" width="37.69" height="3.8" maskUnits="userSpaceOnUse"><polygon class="b" points="10 16.3 47.69 16.3 47.69 20.1 10 20.1 10 16.3"/></mask><mask id="j" x="38.08" y="21.54" width="11.89" height="21.6" maskUnits="userSpaceOnUse"><polygon class="b" points="38.08 21.54 49.97 21.54 49.97 43.14 38.08 43.14 38.08 21.54"/></mask><mask id="k" x="10" y="16.3" width="40" height="26.8" maskUnits="userSpaceOnUse"><polygon class="b" points="10 43.1 50 43.1 50 16.3 10 16.3 10 43.1"/></mask></defs><title>illo-xs-sm-dev</title><rect class="c" width="60" height="60"/><g class="d"><rect class="e" width="262" height="128"/><g class="f"><g class="g"><path class="h" d="M4.35,5.67A.68.68,0,1,1,3.67,5a.67.67,0,0,1,.68.67"/></g><g class="i"><path class="h" d="M15,5.67A.68.68,0,1,1,14.28,5a.67.67,0,0,1,.67.67"/></g><g class="j"><path class="h" d="M25.55,5.67a.67.67,0,0,1-.67.68.68.68,0,1,1,0-1.35.67.67,0,0,1,.67.67"/></g><g class="k"><path class="h" d="M36.15,5.67A.67.67,0,1,1,35.48,5a.67.67,0,0,1,.67.67"/></g><g class="l"><path class="h" d="M46.76,5.67a.68.68,0,0,1-.68.68.68.68,0,1,1,.68-.68"/></g><g class="m"><path class="h" d="M57.36,5.67A.68.68,0,1,1,56.68,5a.67.67,0,0,1,.68.67"/></g><path class="h" d="M4.35,15.29a.68.68,0,1,1-.68-.67.67.67,0,0,1,.68.67"/><path class="h" d="M15,15.29a.68.68,0,1,1-.67-.67.67.67,0,0,1,.67.67"/><path class="h" d="M25.55,15.29a.67.67,0,0,1-.67.68.68.68,0,1,1,0-1.35.67.67,0,0,1,.67.67"/><path class="h" d="M36.15,15.29a.67.67,0,1,1-.67-.67.67.67,0,0,1,.67.67"/><path class="h" d="M46.76,15.29a.68.68,0,0,1-.68.68.68.68,0,1,1,.68-.68"/><path class="h" d="M57.36,15.29a.68.68,0,1,1-.68-.67.67.67,0,0,1,.68.67"/><path class="h" d="M4.35,24.92a.68.68,0,1,1-.68-.68.67.67,0,0,1,.68.68"/><path class="h" d="M15,24.92a.68.68,0,1,1-.67-.68.67.67,0,0,1,.67.68"/><path class="h" d="M25.55,24.92a.67.67,0,0,1-.67.67.68.68,0,1,1,.67-.67"/><path class="h" d="M36.15,24.92a.67.67,0,1,1-.67-.68.67.67,0,0,1,.67.68"/><path class="h" d="M46.76,24.92a.68.68,0,0,1-.68.67.68.68,0,0,1,0-1.35.68.68,0,0,1,.68.68"/><path class="h" d="M57.36,24.92a.68.68,0,1,1-.68-.68.67.67,0,0,1,.68.68"/><path class="h" d="M4.35,34.54a.68.68,0,1,1-.68-.68.67.67,0,0,1,.68.68"/><path class="h" d="M15,34.54a.68.68,0,1,1-.67-.68.67.67,0,0,1,.67.68"/><path class="h" d="M25.55,34.54a.67.67,0,0,1-.67.67.68.68,0,1,1,.67-.67"/><path class="h" d="M36.15,34.54a.67.67,0,1,1-.67-.68.67.67,0,0,1,.67.68"/><path class="h" d="M46.76,34.54a.68.68,0,0,1-.68.67.68.68,0,0,1,0-1.35.68.68,0,0,1,.68.68"/><path class="h" d="M57.36,34.54a.68.68,0,1,1-.68-.68.67.67,0,0,1,.68.68"/><path class="h" d="M4.35,44.16a.68.68,0,1,1-.68-.68.67.67,0,0,1,.68.68"/><path class="h" d="M15,44.16a.68.68,0,1,1-.67-.68.67.67,0,0,1,.67.68"/><path class="h" d="M25.55,44.16a.67.67,0,0,1-.67.67.68.68,0,1,1,.67-.67"/><path class="h" d="M36.15,44.16a.67.67,0,1,1-.67-.68.67.67,0,0,1,.67.68"/><path class="h" d="M46.76,44.16a.68.68,0,0,1-.68.67.68.68,0,0,1,0-1.35.68.68,0,0,1,.68.68"/><path class="h" d="M57.36,44.16a.68.68,0,1,1-.68-.68.67.67,0,0,1,.68.68"/><path class="h" d="M4.35,53.78a.68.68,0,1,1-.68-.68.68.68,0,0,1,.68.68"/><path class="h" d="M15,53.78a.68.68,0,0,1-1.35,0,.68.68,0,1,1,1.35,0"/><path class="h" d="M25.55,53.78a.67.67,0,0,1-.67.67.68.68,0,0,1-.68-.67.69.69,0,0,1,.68-.68.68.68,0,0,1,.67.68"/><path class="h" d="M36.15,53.78a.67.67,0,1,1-1.34,0,.67.67,0,1,1,1.34,0"/><path class="h" d="M46.76,53.78a.68.68,0,0,1-.68.67.67.67,0,0,1-.67-.67.68.68,0,0,1,.67-.68.69.69,0,0,1,.68.68"/><path class="h" d="M57.36,53.78a.68.68,0,1,1-.68-.68.68.68,0,0,1,.68.68"/></g></g><path class="n" d="M47.39,40.68H10.3a.29.29,0,0,1-.3-.3V20H47.69V40.38a.3.3,0,0,1-.3.3"/><g class="o"><path class="p" d="M47.69,20.1H10V16.6a.29.29,0,0,1,.3-.3H47.39a.3.3,0,0,1,.3.3Z"/></g><path class="b" d="M12.36,18.25a.39.39,0,0,1-.39.39.39.39,0,1,1,0-.78.39.39,0,0,1,.39.39"/><path class="b" d="M14.32,18.25a.4.4,0,1,1-.39-.39.39.39,0,0,1,.39.39"/><path class="b" d="M16.28,18.25a.4.4,0,1,1-.39-.39.39.39,0,0,1,.39.39"/><path class="q" d="M18.08,30.5H16a.22.22,0,0,1,0-.44h2.13a.22.22,0,1,1,0,.44"/><path class="q" d="M34.94,30.5H32.81a.22.22,0,0,1,0-.44h2.13a.22.22,0,1,1,0,.44"/><path class="q" d="M20.53,32.49H16a.22.22,0,0,1-.22-.22.22.22,0,0,1,.22-.22h4.58a.22.22,0,0,1,.23.22.22.22,0,0,1-.23.22"/><path class="q" d="M31.71,32.49h-10a.22.22,0,0,1-.22-.22.21.21,0,0,1,.22-.22h10a.22.22,0,0,1,.23.22.22.22,0,0,1-.23.22"/><path class="q" d="M31.71,30.5H21.37a.22.22,0,0,1,0-.44H31.71a.22.22,0,1,1,0,.44"/><path class="q" d="M20.43,30.5H19.07a.22.22,0,0,1,0-.44h1.36a.22.22,0,0,1,0,.44"/><path class="q" d="M18.08,34.48H16a.22.22,0,0,1-.22-.22A.22.22,0,0,1,16,34h2.13a.22.22,0,0,1,.22.23.22.22,0,0,1-.22.22"/><path class="q" d="M20.43,34.48H19.07a.22.22,0,0,1-.22-.22.22.22,0,0,1,.22-.23h1.36a.22.22,0,0,1,.22.23.22.22,0,0,1-.22.22"/><path class="r" d="M14.3,30.5h-.85a.22.22,0,0,1,0-.44h.85a.22.22,0,0,1,0,.44"/><path class="s" d="M14.3,32.49h-.85a.22.22,0,0,1-.22-.22.22.22,0,0,1,.22-.22h.85a.22.22,0,0,1,.22.22.22.22,0,0,1-.22.22"/><path class="r" d="M14.3,34.48h-.85a.22.22,0,0,1-.22-.22.22.22,0,0,1,.22-.23h.85a.22.22,0,0,1,.22.23.22.22,0,0,1-.22.22"/><path class="t" d="M15.2,27a.22.22,0,0,1-.15-.06L13.6,25.5a.24.24,0,0,1-.07-.16.21.21,0,0,1,.07-.15l1.45-1.45a.22.22,0,0,1,.31.31l-1.29,1.29,1.29,1.3a.21.21,0,0,1,0,.31.23.23,0,0,1-.16.06"/><path class="t" d="M19.69,27a.25.25,0,0,1-.16-.06.23.23,0,0,1,0-.31l1.3-1.3-1.3-1.29a.23.23,0,0,1,0-.31.22.22,0,0,1,.32,0l1.44,1.45a.18.18,0,0,1,.07.15.2.2,0,0,1-.07.16L19.85,27a.25.25,0,0,1-.16.06"/><path class="t" d="M16.64,26.91a.28.28,0,0,1-.12,0,.21.21,0,0,1-.07-.3l1.62-2.68a.22.22,0,0,1,.3-.08.23.23,0,0,1,.08.31L16.82,26.8a.21.21,0,0,1-.18.11"/><g class="u"><path class="p" d="M49.6,43.14H38.45a.36.36,0,0,1-.37-.37V21.9a.36.36,0,0,1,.37-.36H49.6a.37.37,0,0,1,.37.36V42.77a.37.37,0,0,1-.37.37"/></g><g class="v"><polygon class="n" points="39.37 40.31 48.67 40.31 48.67 24.37 39.37 24.37 39.37 40.31"/></g><g class="v"><path class="q" d="M44.85,41.76a.83.83,0,1,1-.83-.84.84.84,0,0,1,.83.84"/></g><g class="v"><path class="q" d="M45,23.15H43a.2.2,0,0,1-.2-.2.19.19,0,0,1,.2-.19h2a.19.19,0,0,1,.19.19.2.2,0,0,1-.19.2"/></g></svg>