<svg xmlns="http://www.w3.org/2000/svg" xmlns:xlink="http://www.w3.org/1999/xlink" width="60" height="60" viewBox="0 0 60 60"><defs><style>.a,.b{fill:#fff;}.b,.h,.n,.o,.p,.r{fill-rule:evenodd;}.c{fill:#f9f9f9;}.d{mask:url(#a);}.e,.o{fill:#1d4354;}.f{mask:url(#b);}.g{mask:url(#c);}.h{fill:#2f5a6e;}.i{mask:url(#d);}.j{mask:url(#e);}.k{mask:url(#f);}.l{mask:url(#g);}.m{mask:url(#h);}.n{fill:#2b5468;}.p{fill:#6fda44;}.q{mask:url(#i);}.r{fill:#b2b2b2;}.s{mask:url(#j);}.t{mask:url(#k);}</style><mask id="a" x="0" y="0" width="262" height="128" maskUnits="userSpaceOnUse"><rect class="a" width="60" height="60"/></mask><mask id="b" x="0" y="0" width="262" height="128" maskUnits="userSpaceOnUse"><rect class="a" width="262" height="128"/></mask><mask id="c" x="3" y="5" width="1.35" height="1.35" maskUnits="userSpaceOnUse"><polygon class="b" points="3 5 4.35 5 4.35 6.35 3 6.35 3 5"/></mask><mask id="d" x="13.6" y="5" width="1.35" height="1.35" maskUnits="userSpaceOnUse"><polygon class="b" points="13.6 5 14.95 5 14.95 6.35 13.6 6.35 13.6 5"/></mask><mask id="e" x="24.2" y="5" width="1.35" height="1.35" maskUnits="userSpaceOnUse"><polygon class="b" points="24.2 5 25.55 5 25.55 6.35 24.2 6.35 24.2 5"/></mask><mask id="f" x="34.81" y="5" width="1.35" height="1.35" maskUnits="userSpaceOnUse"><polygon class="b" points="34.81 5 36.15 5 36.15 6.35 34.81 6.35 34.81 5"/></mask><mask id="g" x="45.41" y="5" width="1.35" height="1.35" maskUnits="userSpaceOnUse"><polygon class="b" points="45.41 5 46.76 5 46.76 6.35 45.41 6.35 45.41 5"/></mask><mask id="h" x="56.01" y="5" width="1.35" height="1.35" maskUnits="userSpaceOnUse"><polygon class="b" points="56.01 5 57.36 5 57.36 6.35 56.01 6.35 56.01 5"/></mask><mask id="i" x="32.25" y="43.69" width="1.24" height="2.41" maskUnits="userSpaceOnUse"><polygon class="b" points="32.25 43.69 33.49 43.69 33.49 46.1 32.25 46.1 32.25 43.69"/></mask><mask id="j" x="45.62" y="43.69" width="1.24" height="2.41" maskUnits="userSpaceOnUse"><polygon class="b" points="45.62 43.69 46.86 43.69 46.86 46.1 45.62 46.1 45.62 43.69"/></mask><mask id="k" x="13" y="14.36" width="34.8" height="31.74" maskUnits="userSpaceOnUse"><polygon class="b" points="13 46.1 47.8 46.1 47.8 14.36 13 14.36 13 46.1"/></mask></defs><title>illo-xs-sm-engineering</title><rect class="c" width="60" height="60"/><g class="d"><rect class="e" width="262" height="128"/><g class="f"><g class="g"><path class="h" d="M4.35,5.67A.68.68,0,1,1,3.67,5a.67.67,0,0,1,.68.67"/></g><g class="i"><path class="h" d="M15,5.67A.68.68,0,1,1,14.28,5a.67.67,0,0,1,.67.67"/></g><g class="j"><path class="h" d="M25.55,5.67a.67.67,0,0,1-.67.68.68.68,0,1,1,0-1.35.67.67,0,0,1,.67.67"/></g><g class="k"><path class="h" d="M36.15,5.67A.67.67,0,1,1,35.48,5a.67.67,0,0,1,.67.67"/></g><g class="l"><path class="h" d="M46.76,5.67a.68.68,0,0,1-.68.68.68.68,0,1,1,.68-.68"/></g><g class="m"><path class="h" d="M57.36,5.67A.68.68,0,1,1,56.68,5a.67.67,0,0,1,.68.67"/></g><path class="h" d="M4.35,15.29a.68.68,0,1,1-.68-.67.67.67,0,0,1,.68.67"/><path class="h" d="M15,15.29a.68.68,0,1,1-.67-.67.67.67,0,0,1,.67.67"/><path class="h" d="M25.55,15.29a.67.67,0,0,1-.67.68.68.68,0,1,1,0-1.35.67.67,0,0,1,.67.67"/><path class="h" d="M36.15,15.29a.67.67,0,1,1-.67-.67.67.67,0,0,1,.67.67"/><path class="h" d="M46.76,15.29a.68.68,0,0,1-.68.68.68.68,0,1,1,.68-.68"/><path class="h" d="M57.36,15.29a.68.68,0,1,1-.68-.67.67.67,0,0,1,.68.67"/><path class="h" d="M4.35,24.92a.68.68,0,1,1-.68-.68.67.67,0,0,1,.68.68"/><path class="h" d="M15,24.92a.68.68,0,1,1-.67-.68.67.67,0,0,1,.67.68"/><path class="h" d="M25.55,24.92a.67.67,0,0,1-.67.67.68.68,0,1,1,.67-.67"/><path class="h" d="M36.15,24.92a.67.67,0,1,1-.67-.68.67.67,0,0,1,.67.68"/><path class="h" d="M46.76,24.92a.68.68,0,0,1-.68.67.68.68,0,0,1,0-1.35.68.68,0,0,1,.68.68"/><path class="h" d="M57.36,24.92a.68.68,0,1,1-.68-.68.67.67,0,0,1,.68.68"/><path class="h" d="M4.35,34.54a.68.68,0,1,1-.68-.68.67.67,0,0,1,.68.68"/><path class="h" d="M15,34.54a.68.68,0,1,1-.67-.68.67.67,0,0,1,.67.68"/><path class="h" d="M25.55,34.54a.67.67,0,0,1-.67.67.68.68,0,1,1,.67-.67"/><path class="h" d="M36.15,34.54a.67.67,0,1,1-.67-.68.67.67,0,0,1,.67.68"/><path class="h" d="M46.76,34.54a.68.68,0,0,1-.68.67.68.68,0,0,1,0-1.35.68.68,0,0,1,.68.68"/><path class="h" d="M57.36,34.54a.68.68,0,1,1-.68-.68.67.67,0,0,1,.68.68"/><path class="h" d="M4.35,44.16a.68.68,0,1,1-.68-.68.67.67,0,0,1,.68.68"/><path class="h" d="M15,44.16a.68.68,0,1,1-.67-.68.67.67,0,0,1,.67.68"/><path class="h" d="M25.55,44.16a.67.67,0,0,1-.67.67.68.68,0,1,1,.67-.67"/><path class="h" d="M36.15,44.16a.67.67,0,1,1-.67-.68.67.67,0,0,1,.67.68"/><path class="h" d="M46.76,44.16a.68.68,0,0,1-.68.67.68.68,0,0,1,0-1.35.68.68,0,0,1,.68.68"/><path class="h" d="M57.36,44.16a.68.68,0,1,1-.68-.68.67.67,0,0,1,.68.68"/><path class="h" d="M4.35,53.78a.68.68,0,1,1-.68-.68.68.68,0,0,1,.68.68"/><path class="h" d="M15,53.78a.68.68,0,0,1-1.35,0,.68.68,0,1,1,1.35,0"/><path class="h" d="M25.55,53.78a.67.67,0,0,1-.67.67.68.68,0,0,1-.68-.67.69.69,0,0,1,.68-.68.68.68,0,0,1,.67.68"/><path class="h" d="M36.15,53.78a.67.67,0,1,1-1.34,0,.67.67,0,1,1,1.34,0"/><path class="h" d="M46.76,53.78a.68.68,0,0,1-.68.67.67.67,0,0,1-.67-.67.68.68,0,0,1,.67-.68.69.69,0,0,1,.68.68"/><path class="h" d="M57.36,53.78a.68.68,0,1,1-.68-.68.68.68,0,0,1,.68.68"/></g></g><polygon class="n" points="22.11 44.87 27.51 44.87 27.51 15.58 22.11 15.58 22.11 44.87"/><polygon class="o" points="25.73 23.21 27.51 23.21 27.51 22.63 25.73 22.63 25.73 23.21"/><polygon class="o" points="25.73 19.59 27.51 19.59 27.51 19.02 25.73 19.02 25.73 19.59"/><polygon class="o" points="25.73 26.82 27.51 26.82 27.51 26.24 25.73 26.24 25.73 26.82"/><polygon class="o" points="25.73 30.43 27.51 30.43 27.51 29.86 25.73 29.86 25.73 30.43"/><polygon class="o" points="25.73 34.05 27.51 34.05 27.51 33.47 25.73 33.47 25.73 34.05"/><polygon class="o" points="25.73 37.66 27.51 37.66 27.51 37.08 25.73 37.08 25.73 37.66"/><polygon class="o" points="25.73 41.27 27.51 41.27 27.51 40.7 25.73 40.7 25.73 41.27"/><path class="n" d="M22.33,39.56a9.33,9.33,0,0,1,0-18.66v4a5.29,5.29,0,1,0,0,10.58Z"/><path class="p" d="M22.33,28.86A1.37,1.37,0,1,1,21,30.23a1.37,1.37,0,0,1,1.37-1.37"/><g class="q"><polygon class="r" points="32.92 46.1 32.25 45.93 32.81 43.69 33.49 43.86 32.92 46.1"/></g><g class="s"><polygon class="r" points="46.18 46.1 46.86 45.93 46.29 43.69 45.62 43.86 46.18 46.1"/></g><g class="t"><polygon class="r" points="32.1 36.44 47.05 36.44 47.05 35.81 32.1 35.81 32.1 36.44"/></g><g class="t"><path class="b" d="M33.11,44.17l-.11,0a1.18,1.18,0,0,1-.85-1.41l4.63-18.4,2.37.6-4.63,18.4a1.17,1.17,0,0,1-1.41.84"/></g><g class="t"><path class="b" d="M46,44.17l.11,0A1.16,1.16,0,0,0,47,42.73l-4.63-18.4-2.36.6,4.63,18.4a1.16,1.16,0,0,0,1.41.84"/></g><g class="t"><polygon class="p" points="38.75 37.35 40.4 37.35 40.4 34.82 38.75 34.82 38.75 37.35"/></g><g class="t"><path class="r" d="M47.8,36.12a.75.75,0,1,1-1.49,0,.75.75,0,0,1,1.49,0"/></g><g class="t"><path class="r" d="M32.84,36.12a.75.75,0,0,1-.74.75.76.76,0,0,1-.75-.75.75.75,0,0,1,.75-.74.74.74,0,0,1,.74.74"/></g><g class="t"><polygon class="r" points="38.47 20.71 40.64 20.71 40.64 14.36 38.47 14.36 38.47 20.71"/></g><g class="t"><path class="b" d="M43.6,21.9a4,4,0,1,1-4.05-4,4,4,0,0,1,4.05,4"/></g><g class="t"><path class="o" d="M41.43,21.9A1.88,1.88,0,1,1,39.55,20a1.88,1.88,0,0,1,1.88,1.87"/></g></svg>