<svg xmlns="http://www.w3.org/2000/svg" xmlns:xlink="http://www.w3.org/1999/xlink" width="60" height="60" viewBox="0 0 60 60"><defs><style>.a,.b{fill:#fff;}.b,.h,.n,.p,.r{fill-rule:evenodd;}.c{fill:#f9f9f9;}.d{mask:url(#a);}.e{fill:#1d4354;}.f{mask:url(#b);}.g{mask:url(#c);}.h{fill:#2f5a6e;}.i{mask:url(#d);}.j{mask:url(#e);}.k{mask:url(#f);}.l{mask:url(#g);}.m{mask:url(#h);}.n{fill:#336278;}.o{mask:url(#i);}.p{fill:#2b5468;}.q{mask:url(#j);}.r{fill:#6fda44;}.s{mask:url(#k);}</style><mask id="a" x="0" y="0" width="262" height="128" maskUnits="userSpaceOnUse"><rect class="a" width="60" height="60"/></mask><mask id="b" x="0" y="0" width="262" height="128" maskUnits="userSpaceOnUse"><rect class="a" width="262" height="128"/></mask><mask id="c" x="3" y="5" width="1.35" height="1.35" maskUnits="userSpaceOnUse"><polygon class="b" points="3 5 4.35 5 4.35 6.35 3 6.35 3 5"/></mask><mask id="d" x="13.6" y="5" width="1.35" height="1.35" maskUnits="userSpaceOnUse"><polygon class="b" points="13.6 5 14.95 5 14.95 6.35 13.6 6.35 13.6 5"/></mask><mask id="e" x="24.2" y="5" width="1.35" height="1.35" maskUnits="userSpaceOnUse"><polygon class="b" points="24.2 5 25.55 5 25.55 6.35 24.2 6.35 24.2 5"/></mask><mask id="f" x="34.81" y="5" width="1.35" height="1.35" maskUnits="userSpaceOnUse"><polygon class="b" points="34.81 5 36.15 5 36.15 6.35 34.81 6.35 34.81 5"/></mask><mask id="g" x="45.41" y="5" width="1.35" height="1.35" maskUnits="userSpaceOnUse"><polygon class="b" points="45.41 5 46.76 5 46.76 6.35 45.41 6.35 45.41 5"/></mask><mask id="h" x="56.01" y="5" width="1.35" height="1.35" maskUnits="userSpaceOnUse"><polygon class="b" points="56.01 5 57.36 5 57.36 6.35 56.01 6.35 56.01 5"/></mask><mask id="i" x="10.74" y="14.36" width="38.36" height="23.71" maskUnits="userSpaceOnUse"><polygon class="b" points="10.74 14.36 49.1 14.36 49.1 38.08 10.74 38.08 10.74 14.36"/></mask><mask id="j" x="10" y="36.26" width="39.85" height="3.86" maskUnits="userSpaceOnUse"><polygon class="b" points="10 36.26 49.85 36.26 49.85 40.11 10 40.11 10 36.26"/></mask><mask id="k" x="10" y="14.36" width="39.85" height="30.18" maskUnits="userSpaceOnUse"><polygon class="b" points="10 44.55 49.85 44.55 49.85 14.36 10 14.36 10 44.55"/></mask></defs><title>illo-xs-sm-sales</title><rect class="c" width="60" height="60"/><g class="d"><rect class="e" width="262" height="128"/><g class="f"><g class="g"><path class="h" d="M4.35,5.67A.68.68,0,1,1,3.67,5a.67.67,0,0,1,.68.67"/></g><g class="i"><path class="h" d="M15,5.67A.68.68,0,1,1,14.28,5a.67.67,0,0,1,.67.67"/></g><g class="j"><path class="h" d="M25.55,5.67a.67.67,0,0,1-.67.68.68.68,0,1,1,0-1.35.67.67,0,0,1,.67.67"/></g><g class="k"><path class="h" d="M36.15,5.67A.67.67,0,1,1,35.48,5a.67.67,0,0,1,.67.67"/></g><g class="l"><path class="h" d="M46.76,5.67a.68.68,0,0,1-.68.68.68.68,0,1,1,.68-.68"/></g><g class="m"><path class="h" d="M57.36,5.67A.68.68,0,1,1,56.68,5a.67.67,0,0,1,.68.67"/></g><path class="h" d="M4.35,15.29a.68.68,0,1,1-.68-.67.67.67,0,0,1,.68.67"/><path class="h" d="M15,15.29a.68.68,0,1,1-.67-.67.67.67,0,0,1,.67.67"/><path class="h" d="M25.55,15.29a.67.67,0,0,1-.67.68.68.68,0,1,1,0-1.35.67.67,0,0,1,.67.67"/><path class="h" d="M36.15,15.29a.67.67,0,1,1-.67-.67.67.67,0,0,1,.67.67"/><path class="h" d="M46.76,15.29a.68.68,0,0,1-.68.68.68.68,0,1,1,.68-.68"/><path class="h" d="M57.36,15.29a.68.68,0,1,1-.68-.67.67.67,0,0,1,.68.67"/><path class="h" d="M4.35,24.92a.68.68,0,1,1-.68-.68.67.67,0,0,1,.68.68"/><path class="h" d="M15,24.92a.68.68,0,1,1-.67-.68.67.67,0,0,1,.67.68"/><path class="h" d="M25.55,24.92a.67.67,0,0,1-.67.67.68.68,0,1,1,.67-.67"/><path class="h" d="M36.15,24.92a.67.67,0,1,1-.67-.68.67.67,0,0,1,.67.68"/><path class="h" d="M46.76,24.92a.68.68,0,0,1-.68.67.68.68,0,0,1,0-1.35.68.68,0,0,1,.68.68"/><path class="h" d="M57.36,24.92a.68.68,0,1,1-.68-.68.67.67,0,0,1,.68.68"/><path class="h" d="M4.35,34.54a.68.68,0,1,1-.68-.68.67.67,0,0,1,.68.68"/><path class="h" d="M15,34.54a.68.68,0,1,1-.67-.68.67.67,0,0,1,.67.68"/><path class="h" d="M25.55,34.54a.67.67,0,0,1-.67.67.68.68,0,1,1,.67-.67"/><path class="h" d="M36.15,34.54a.67.67,0,1,1-.67-.68.67.67,0,0,1,.67.68"/><path class="h" d="M46.76,34.54a.68.68,0,0,1-.68.67.68.68,0,0,1,0-1.35.68.68,0,0,1,.68.68"/><path class="h" d="M57.36,34.54a.68.68,0,1,1-.68-.68.67.67,0,0,1,.68.68"/><path class="h" d="M4.35,44.16a.68.68,0,1,1-.68-.68.67.67,0,0,1,.68.68"/><path class="h" d="M15,44.16a.68.68,0,1,1-.67-.68.67.67,0,0,1,.67.68"/><path class="h" d="M25.55,44.16a.67.67,0,0,1-.67.67.68.68,0,1,1,.67-.67"/><path class="h" d="M36.15,44.16a.67.67,0,1,1-.67-.68.67.67,0,0,1,.67.68"/><path class="h" d="M46.76,44.16a.68.68,0,0,1-.68.67.68.68,0,0,1,0-1.35.68.68,0,0,1,.68.68"/><path class="h" d="M57.36,44.16a.68.68,0,1,1-.68-.68.67.67,0,0,1,.68.68"/><path class="h" d="M4.35,53.78a.68.68,0,1,1-.68-.68.68.68,0,0,1,.68.68"/><path class="h" d="M15,53.78a.68.68,0,0,1-1.35,0,.68.68,0,1,1,1.35,0"/><path class="h" d="M25.55,53.78a.67.67,0,0,1-.67.67.68.68,0,0,1-.68-.67.69.69,0,0,1,.68-.68.68.68,0,0,1,.67.68"/><path class="h" d="M36.15,53.78a.67.67,0,1,1-1.34,0,.67.67,0,1,1,1.34,0"/><path class="h" d="M46.76,53.78a.68.68,0,0,1-.68.67.67.67,0,0,1-.67-.67.68.68,0,0,1,.67-.68.69.69,0,0,1,.68.68"/><path class="h" d="M57.36,53.78a.68.68,0,1,1-.68-.68.68.68,0,0,1,.68.68"/></g></g><polygon class="n" points="35.01 36.79 36.24 44.55 39.73 44.55 38.49 36.79 35.01 36.79"/><polygon class="n" points="21.35 36.79 20.12 44.55 23.61 44.55 24.84 36.79 21.35 36.79"/><g class="o"><path class="p" d="M48.92,38.07h-38a.18.18,0,0,1-.18-.18V14.55a.19.19,0,0,1,.18-.19h38a.19.19,0,0,1,.18.19V37.89a.18.18,0,0,1-.18.18"/></g><g class="q"><path class="r" d="M49.66,40.11H10.18a.18.18,0,0,1-.18-.18V36.44a.18.18,0,0,1,.18-.18H49.66a.19.19,0,0,1,.19.18v3.49a.19.19,0,0,1-.19.18"/></g><g class="s"><polygon class="b" points="22.82 30.71 25.65 30.71 25.65 21.26 22.82 21.26 22.82 30.71"/></g><g class="s"><polygon class="b" points="28.51 30.71 31.34 30.71 31.34 23.28 28.51 23.28 28.51 30.71"/></g><g class="s"><polygon class="b" points="34.19 30.71 37.02 30.71 37.02 25.06 34.19 25.06 34.19 30.71"/></g></svg>