<?xml version="1.0" encoding="UTF-8"?>
<svg width="279px" height="172px" viewBox="0 0 279 172" version="1.1" xmlns="http://www.w3.org/2000/svg" xmlns:xlink="http://www.w3.org/1999/xlink">
    <!-- Generator: Sketch 60 (88103) - https://sketch.com -->
    <title>Group 5</title>
    <desc>Created with Sketch.</desc>
    <g id="Design-Sprint" stroke="none" stroke-width="1" fill="none" fill-rule="evenodd">
        <g id="T1---SM---U2U-Homepage" transform="translate(-244.000000, -1921.000000)">
            <g id="3" transform="translate(168.000000, 1921.000000)">
                <g id="Group-5" transform="translate(76.000000, 0.000000)">
                    <g id="specialized-profile" fill-rule="nonzero">
                        <path d="M80.2148148,143.673383 L1.41555556,143.673383 C0.670993893,143.673383 0.0674074074,143.080255 0.0674074074,142.348594 L0.0674074074,14.2547312 C0.0674074074,13.5230704 0.670993893,12.9299421 1.41555556,12.9299421 L100.962815,12.9299421 C101.707376,12.9299421 102.310963,13.5230704 102.310963,14.2547312 L102.310963,142.348594 C102.310963,143.080255 101.707376,143.673383 100.962815,143.673383 L80.2148148,143.673383 Z" id="Path" fill="#E0E0E0"></path>
                        <polygon id="Path" fill="#FFFFFF" points="74.5121481 136.360547 7.7922963 136.360547 7.7922963 21.9517561 94.5995556 21.9517561 94.5995556 116.634436"></polygon>
                        <path d="M75.0783704,44.181718 L27.3134815,44.181718 C26.5689198,44.181718 25.9653333,43.5885897 25.9653333,42.8569289 C25.9653333,42.125268 26.5689198,41.5321397 27.3134815,41.5321397 L75.0783704,41.5321397 C75.822932,41.5321397 76.4265185,42.125268 76.4265185,42.8569289 C76.4265185,43.5885897 75.822932,44.181718 75.0783704,44.181718 Z" id="Path" fill="#C4C4C4"></path>
                        <rect id="Rectangle" fill="#FFFFFF" x="19.8851852" y="96.6433682" width="14.9644444" height="14.7051595"></rect>
                        <rect id="Rectangle" fill="#6FDA44" x="19.9121481" y="58.0257646" width="18.4157037" height="18.0966197"></rect>
                        <path d="M26.962963,71.8168196 L26.962963,71.8168196 C26.6026759,71.8153498 26.2579778,71.6722263 26.0057778,71.4193828 L23.3094815,68.7698045 C22.7867726,68.2530872 22.7867726,67.4185692 23.3094815,66.9018519 C23.5626187,66.6510525 23.9071998,66.5099814 24.2666667,66.5099814 C24.6261336,66.5099814 24.9707147,66.6510525 25.2238519,66.9018519 L26.962963,68.6108298 L32.9622222,62.7155182 C33.2153594,62.4647188 33.5599405,62.3236477 33.9194074,62.3236477 C34.2788743,62.3236477 34.6234554,62.4647188 34.8765926,62.7155182 C35.3993014,63.2322355 35.3993014,64.0667535 34.8765926,64.5834708 L27.9201481,71.4193828 C27.6679481,71.6722263 27.32325,71.8153498 26.962963,71.8168196 L26.962963,71.8168196 Z" id="Path" fill="#FFFFFF"></path>
                        <rect id="Rectangle" fill="#6FDA44" x="19.9121481" y="90.2843803" width="18.4157037" height="18.0966197"></rect>
                        <path d="M26.962963,104.075457 L26.962963,104.075457 C26.6060178,104.070555 26.2641285,103.93333 26.0057778,103.691246 L23.3094815,101.041668 C22.7867726,100.524951 22.7867726,99.6904328 23.3094815,99.1737154 C23.5626187,98.9229161 23.9071998,98.781845 24.2666667,98.781845 C24.6261336,98.781845 24.9707147,98.9229161 25.2238519,99.1737154 L26.962963,100.869446 L32.9622222,94.9741338 C33.490861,94.4546546 34.3479538,94.4546546 34.8765926,94.9741338 C35.4052314,95.493613 35.4052314,96.3358552 34.8765926,96.8553344 L27.9201481,103.691246 C27.6657272,103.939229 27.3213048,104.077471 26.962963,104.075457 Z" id="Path" fill="#FFFFFF"></path>
                        <polygon id="Path" fill="#D1D1D1" points="94.5995556 116.647684 74.5391111 116.647684 74.5391111 136.360547"></polygon>
                        <path d="M213.411852,31.7949395 C213.428134,33.0570543 212.664071,34.2028465 211.479972,34.6919953 C210.295873,35.1811441 208.928205,34.9159657 208.021919,34.02151 C207.115632,33.1270544 206.851714,31.781946 207.35462,30.6204969 C207.857526,29.4590479 209.026825,28.7132016 210.311111,28.7346766 C212.019677,28.7562352 213.397326,30.1158997 213.411852,31.7949395" id="Path" fill="#FFCC0D"></path>
                        <path d="M196.479111,7.07437404 L191.086519,7.07437404 L191.086519,1.77521746 C191.134343,1.34129509 190.925698,0.918659726 190.549281,0.686980796 C190.172864,0.455301866 189.694839,0.455301866 189.318422,0.686980796 C188.942006,0.918659726 188.73336,1.34129509 188.781185,1.77521746 L188.781185,7.07437404 L183.388593,7.07437404 C182.932327,6.96717403 182.455649,7.14408552 182.185415,7.5209149 C181.91518,7.89774427 181.905973,8.3983754 182.162175,8.78455386 C182.418377,9.17073231 182.888239,9.36445353 183.348148,9.27352402 L188.740741,9.27352402 L188.740741,14.5726806 C188.804485,15.1510442 189.301404,15.5893221 189.893407,15.5893221 C190.485411,15.5893221 190.98233,15.1510442 191.046074,14.5726806 L191.046074,9.27352402 L196.438667,9.27352402 C197.071544,9.27352402 197.584593,8.76936496 197.584593,8.14745325 C197.584593,7.52554153 197.071544,7.02138247 196.438667,7.02138247 L196.479111,7.07437404 Z" id="Path" fill="#F3756C"></path>
                        <path d="M140.207407,171.493955 L57.2962963,171.493955 C56.5517346,171.493955 55.9481481,170.900827 55.9481481,170.169166 L55.9481481,35.3321265 C55.9481481,34.6004657 56.5517346,34.0073374 57.2962963,34.0073374 L162.114815,34.0073374 C162.859376,34.0073374 163.462963,34.6004657 163.462963,35.3321265 L163.462963,170.169166 C163.462963,170.900827 162.859376,171.493955 162.114815,171.493955 L140.207407,171.493955 Z" id="Path" fill="#1D4354"></path>
                        <path d="M140.207407,171.493955 L57.2962963,171.493955 C56.5517346,171.493955 55.9481481,170.900827 55.9481481,170.169166 L55.9481481,35.3321265 C55.9481481,34.6004657 56.5517346,34.0073374 57.2962963,34.0073374 L162.114815,34.0073374 C162.859376,34.0073374 163.462963,34.6004657 163.462963,35.3321265 L163.462963,170.169166 C163.462963,170.900827 162.859376,171.493955 162.114815,171.493955 L140.207407,171.493955 Z" id="Path" fill="#1D4354"></path>
                        <path d="M140.207407,171.493955 L57.2962963,171.493955 C56.5517346,171.493955 55.9481481,170.900827 55.9481481,170.169166 L55.9481481,35.3321265 C55.9481481,34.6004657 56.5517346,34.0073374 57.2962963,34.0073374 L162.114815,34.0073374 C162.859376,34.0073374 163.462963,34.6004657 163.462963,35.3321265 L163.462963,170.169166 C163.462963,170.900827 162.859376,171.493955 162.114815,171.493955 L140.207407,171.493955 Z" id="Path" fill="#1D4354"></path>
                        <path d="M143.68563,90.0061746 L75.4962963,90.0061746 C74.7517346,90.0061746 74.1481481,89.4130462 74.1481481,88.6813854 C74.1481481,87.9497246 74.7517346,87.3565963 75.4962963,87.3565963 L143.739556,87.3565963 C144.484117,87.3565963 145.087704,87.9497246 145.087704,88.6813854 C145.087704,89.4130462 144.484117,90.0061746 143.739556,90.0061746 L143.68563,90.0061746 Z" id="Path" fill="#33637A"></path>
                        <path d="M143.68563,102.114747 L75.4962963,102.114747 C74.7517346,102.114747 74.1481481,101.521619 74.1481481,100.789958 C74.1481481,100.058297 74.7517346,99.4651691 75.4962963,99.4651691 L143.739556,99.4651691 C144.484117,99.4651691 145.087704,100.058297 145.087704,100.789958 C145.087704,101.521619 144.484117,102.114747 143.739556,102.114747 L143.68563,102.114747 Z" id="Path" fill="#33637A"></path>
                        <path d="M128.465037,114.22332 L75.4962963,114.22332 C74.7517346,114.22332 74.1481481,113.630192 74.1481481,112.898531 C74.1481481,112.16687 74.7517346,111.573742 75.4962963,111.573742 L128.465037,111.573742 C129.209599,111.573742 129.813185,112.16687 129.813185,112.898531 C129.813185,113.630192 129.209599,114.22332 128.465037,114.22332 Z" id="Path" fill="#33637A"></path>
                        <path d="M126.793333,126.345141 L75.4962963,126.345141 C74.7517346,126.345141 74.1481481,125.752013 74.1481481,125.020352 C74.1481481,124.288691 74.7517346,123.695563 75.4962963,123.695563 L126.793333,123.695563 C127.537895,123.695563 128.141481,124.288691 128.141481,125.020352 C128.141481,125.752013 127.537895,126.345141 126.793333,126.345141 Z" id="Path" fill="#33637A"></path>
                        <path d="M85.4860741,56.5949923 C86.6619901,57.5342954 87.4599393,58.8536886 87.7374815,60.3176498 L84.1648889,60.3176498 C83.9304281,59.7058356 83.5059197,59.1820767 82.9515556,58.8206381 C82.3780323,58.4569778 81.7060008,58.272254 81.0237037,58.2907224 C80.1009237,58.2602255 79.2171999,58.6576343 78.6374815,59.3638016 C77.4139112,61.0674699 77.4139112,63.3434788 78.6374815,65.047147 C79.2239346,65.7417425 80.1059368,66.1285837 81.0237037,66.0937305 C81.708303,66.1151739 82.3825235,65.9252153 82.9515556,65.5505669 C83.5015343,65.1960486 83.9255906,64.6821078 84.1648889,64.080051 L87.7374815,64.080051 C87.4536524,65.5379881 86.6565986,66.8512107 85.4860741,67.7894606 C84.2298246,68.7500894 82.6681553,69.2428543 81.0776296,69.1804892 C79.8276752,69.2016984 78.5945328,68.8953248 77.505037,68.2928805 C76.4884603,67.7140409 75.6643222,66.8581677 75.1322963,65.8287726 C74.0173518,63.5374777 74.0173518,60.8734709 75.1322963,58.582176 C75.6643222,57.552781 76.4884603,56.6969078 77.505037,56.1180682 C80.0436651,54.7762417 83.1372234,54.9662391 85.4860741,56.6082402 L85.4860741,56.5949923 Z" id="Path" fill="#FFFFFF"></path>
                        <polygon id="Path" fill="#FFFFFF" points="93.0222222 55.3496905 96.433037 65.6565501 99.8438519 55.3496905 103.443407 55.3496905 98.5900741 69.0480103 94.2355556 69.0480103 89.4091852 55.3496905"></polygon>
                        <ellipse id="Oval" fill="#6FDA44" cx="158.313037" cy="55.1509721" rx="37.3976296" ry="36.7496509"></ellipse>
                        <path d="M175.892889,50.9248948 C175.584276,49.1088247 175.372776,47.2781026 175.259259,45.4402677 L175.259259,45.4402677 C175.036258,38.7243268 169.431403,33.3933684 162.593407,33.3933684 C155.755412,33.3933684 150.150557,38.7243268 149.927556,45.4402677 C149.594242,45.5305294 149.248096,45.5663345 148.902963,45.5462508 C148.487914,45.5478597 148.076679,45.6241916 147.68963,45.771465 C146.183316,46.3216555 145.179889,47.7295323 145.168593,49.308652 C145.170019,49.8698547 145.303844,50.4230896 145.559556,50.9248948 C145.858744,51.4000932 146.206576,51.8439963 146.59763,52.2496839 C146.838791,52.493622 147.055494,52.7598076 147.244741,53.0445574 C147.554815,53.6274646 147.069481,54.7932791 146.705481,55.2966989 L133.898074,73.843747 C139.404349,79.6730173 146.567847,83.7397001 154.457333,85.5151393 L162.330519,67.1800576 C170.298074,68.6638214 169.988,65.2326175 170.769926,63.4838959 C171.551852,61.7351742 171.834963,58.5556802 174.113333,58.8206381 C174.113333,58.8206381 177.160148,59.6022637 176.930963,57.2176432 C176.701778,54.8330227 175.892889,50.9248948 175.892889,50.9248948 Z" id="Path" fill="#F9F9F9"></path>
                        <path d="M151.774519,49.5206183 L151.774519,48.9112153 C151.774519,47.0966964 150.277624,45.6257382 148.431111,45.6257382 C147.394118,45.6318751 146.422401,46.1240814 145.815704,46.9505273 C145.683993,47.0798101 145.578734,47.2327142 145.50563,47.4009556 L145.50563,47.4936909 L148.97037,30.6688687 C149.246811,29.3108262 150.518882,28.3747301 151.922815,28.4962145 L172.562963,30.2846799 C173.305938,30.3481679 173.991708,30.702631 174.465893,31.2682735 C174.940079,31.8339159 175.16283,32.5631998 175.084,33.2919512 L174.288593,40.7770099 L164.164,39.7436744 C163.00741,39.6269769 161.885361,40.1731286 161.278963,41.1479509 L156.776148,48.3548038 C156.155403,49.3480228 155.000447,49.8921739 153.823704,49.7458324 L151.774519,49.5206183 Z" id="Path" fill="#1D4354"></path>
                        <path d="M147.109926,39.3064939 L145.424741,47.5069388 L145.424741,47.4142035 C145.497845,47.245962 145.603104,47.0930579 145.734815,46.9637752 C146.341512,46.1373293 147.313229,45.645123 148.350222,45.6389861 C150.196735,45.6389861 151.69363,47.1099443 151.69363,48.9244631 L151.69363,49.5338662 L155.738074,50.0107902 L161.265481,41.1744466 L147.109926,39.3064939 Z" id="Path" fill="#33637A"></path>
                        <path d="M173.911111,88.5886502 C162.640593,78.3082864 152.745185,69.6044217 149.388296,67.5774943 C136.338222,59.6287594 127.561778,68.1206579 124.825037,71.4061349 C133.766528,89.2341073 155.501167,96.8598869 173.911111,88.6283938 L173.911111,88.5886502 Z" id="Path" fill="#B2B2B2"></path>
                    </g>
                    <text id="H2" font-family="GothamSSm-Bold, Gotham SSm" font-size="23.5925926" font-weight="bold" line-spacing="42.1296296" fill="#1D4354">
                        <tspan x="203.411789" y="130.0022">1M+</tspan>
                    </text>
                    <text id="Client-Reviews" font-family="GothamSSm-Medium, Gotham SSm" font-size="13.4814815" font-weight="400" line-spacing="11.7962963" fill="#1B4355">
                        <tspan x="175" y="156.943436">Client Reviews </tspan>
                    </text>
                </g>
            </g>
        </g>
    </g>
</svg>