<svg xmlns="http://www.w3.org/2000/svg" xmlns:xlink="http://www.w3.org/1999/xlink" width="60" height="60" viewBox="0 0 60 60"><defs><style>.a,.b{fill:#fff;}.b,.h,.n,.o,.p,.q,.r{fill-rule:evenodd;}.c{fill:#f9f9f9;}.d{mask:url(#a);}.e,.o{fill:#1d4354;}.f{mask:url(#b);}.g{mask:url(#c);}.h{fill:#2f5a6e;}.i{mask:url(#d);}.j{mask:url(#e);}.k{mask:url(#f);}.l{mask:url(#g);}.m{mask:url(#h);}.n{fill:#336278;}.p{fill:#6fda44;}.q{fill:#e0e0e0;}.r{fill:#34ba08;}.s{mask:url(#i);}.t{mask:url(#j);}</style><mask id="a" x="0" y="0" width="262" height="128" maskUnits="userSpaceOnUse"><rect class="a" width="60" height="60"/></mask><mask id="b" x="0" y="0" width="262" height="128" maskUnits="userSpaceOnUse"><rect class="a" width="262" height="128"/></mask><mask id="c" x="3" y="5" width="1.35" height="1.35" maskUnits="userSpaceOnUse"><polygon class="b" points="3 5 4.35 5 4.35 6.35 3 6.35 3 5"/></mask><mask id="d" x="13.6" y="5" width="1.35" height="1.35" maskUnits="userSpaceOnUse"><polygon class="b" points="13.6 5 14.95 5 14.95 6.35 13.6 6.35 13.6 5"/></mask><mask id="e" x="24.2" y="5" width="1.35" height="1.35" maskUnits="userSpaceOnUse"><polygon class="b" points="24.2 5 25.55 5 25.55 6.35 24.2 6.35 24.2 5"/></mask><mask id="f" x="34.81" y="5" width="1.35" height="1.35" maskUnits="userSpaceOnUse"><polygon class="b" points="34.81 5 36.15 5 36.15 6.35 34.81 6.35 34.81 5"/></mask><mask id="g" x="45.41" y="5" width="1.35" height="1.35" maskUnits="userSpaceOnUse"><polygon class="b" points="45.41 5 46.76 5 46.76 6.35 45.41 6.35 45.41 5"/></mask><mask id="h" x="56.01" y="5" width="1.35" height="1.35" maskUnits="userSpaceOnUse"><polygon class="b" points="56.01 5 57.36 5 57.36 6.35 56.01 6.35 56.01 5"/></mask><mask id="i" x="41.59" y="18.72" width="6.06" height="6.94" maskUnits="userSpaceOnUse"><polygon class="b" points="41.59 18.72 47.65 18.72 47.65 25.66 41.59 25.66 41.59 18.72"/></mask><mask id="j" x="45.54" y="18.11" width="2.1" height="2.07" maskUnits="userSpaceOnUse"><polygon class="b" points="45.54 18.11 47.65 18.11 47.65 20.18 45.54 20.18 45.54 18.11"/></mask></defs><title>illo-xs-sm-writing</title><rect class="c" width="60" height="60"/><g class="d"><rect class="e" width="262" height="128"/><g class="f"><g class="g"><path class="h" d="M4.35,5.67A.68.68,0,1,1,3.67,5a.67.67,0,0,1,.68.67"/></g><g class="i"><path class="h" d="M15,5.67A.68.68,0,1,1,14.28,5a.67.67,0,0,1,.67.67"/></g><g class="j"><path class="h" d="M25.55,5.67a.67.67,0,0,1-.67.68.68.68,0,1,1,0-1.35.67.67,0,0,1,.67.67"/></g><g class="k"><path class="h" d="M36.15,5.67A.67.67,0,1,1,35.48,5a.67.67,0,0,1,.67.67"/></g><g class="l"><path class="h" d="M46.76,5.67a.68.68,0,0,1-.68.68.68.68,0,1,1,.68-.68"/></g><g class="m"><path class="h" d="M57.36,5.67A.68.68,0,1,1,56.68,5a.67.67,0,0,1,.68.67"/></g><path class="h" d="M4.35,15.29a.68.68,0,1,1-.68-.67.67.67,0,0,1,.68.67"/><path class="h" d="M15,15.29a.68.68,0,1,1-.67-.67.67.67,0,0,1,.67.67"/><path class="h" d="M25.55,15.29a.67.67,0,0,1-.67.68.68.68,0,1,1,0-1.35.67.67,0,0,1,.67.67"/><path class="h" d="M36.15,15.29a.67.67,0,1,1-.67-.67.67.67,0,0,1,.67.67"/><path class="h" d="M46.76,15.29a.68.68,0,0,1-.68.68.68.68,0,1,1,.68-.68"/><path class="h" d="M57.36,15.29a.68.68,0,1,1-.68-.67.67.67,0,0,1,.68.67"/><path class="h" d="M4.35,24.92a.68.68,0,1,1-.68-.68.67.67,0,0,1,.68.68"/><path class="h" d="M15,24.92a.68.68,0,1,1-.67-.68.67.67,0,0,1,.67.68"/><path class="h" d="M25.55,24.92a.67.67,0,0,1-.67.67.68.68,0,1,1,.67-.67"/><path class="h" d="M36.15,24.92a.67.67,0,1,1-.67-.68.67.67,0,0,1,.67.68"/><path class="h" d="M46.76,24.92a.68.68,0,0,1-.68.67.68.68,0,0,1,0-1.35.68.68,0,0,1,.68.68"/><path class="h" d="M57.36,24.92a.68.68,0,1,1-.68-.68.67.67,0,0,1,.68.68"/><path class="h" d="M4.35,34.54a.68.68,0,1,1-.68-.68.67.67,0,0,1,.68.68"/><path class="h" d="M15,34.54a.68.68,0,1,1-.67-.68.67.67,0,0,1,.67.68"/><path class="h" d="M25.55,34.54a.67.67,0,0,1-.67.67.68.68,0,1,1,.67-.67"/><path class="h" d="M36.15,34.54a.67.67,0,1,1-.67-.68.67.67,0,0,1,.67.68"/><path class="h" d="M46.76,34.54a.68.68,0,0,1-.68.67.68.68,0,0,1,0-1.35.68.68,0,0,1,.68.68"/><path class="h" d="M57.36,34.54a.68.68,0,1,1-.68-.68.67.67,0,0,1,.68.68"/><path class="h" d="M4.35,44.16a.68.68,0,1,1-.68-.68.67.67,0,0,1,.68.68"/><path class="h" d="M15,44.16a.68.68,0,1,1-.67-.68.67.67,0,0,1,.67.68"/><path class="h" d="M25.55,44.16a.67.67,0,0,1-.67.67.68.68,0,1,1,.67-.67"/><path class="h" d="M36.15,44.16a.67.67,0,1,1-.67-.68.67.67,0,0,1,.67.68"/><path class="h" d="M46.76,44.16a.68.68,0,0,1-.68.67.68.68,0,0,1,0-1.35.68.68,0,0,1,.68.68"/><path class="h" d="M57.36,44.16a.68.68,0,1,1-.68-.68.67.67,0,0,1,.68.68"/><path class="h" d="M4.35,53.78a.68.68,0,1,1-.68-.68.68.68,0,0,1,.68.68"/><path class="h" d="M15,53.78a.68.68,0,0,1-1.35,0,.68.68,0,1,1,1.35,0"/><path class="h" d="M25.55,53.78a.67.67,0,0,1-.67.67.68.68,0,0,1-.68-.67.69.69,0,0,1,.68-.68.68.68,0,0,1,.67.68"/><path class="h" d="M36.15,53.78a.67.67,0,1,1-1.34,0,.67.67,0,1,1,1.34,0"/><path class="h" d="M46.76,53.78a.68.68,0,0,1-.68.67.67.67,0,0,1-.67-.67.68.68,0,0,1,.67-.68.69.69,0,0,1,.68.68"/><path class="h" d="M57.36,53.78a.68.68,0,1,1-.68-.68.68.68,0,0,1,.68.68"/></g></g><polygon class="n" points="13 46.23 38.83 46.23 38.83 14 13 14 13 46.23"/><polygon class="o" points="15.86 21.68 27.02 21.68 27.02 19.09 15.86 19.09 15.86 21.68"/><path class="o" d="M26.91,31.07h-9a.25.25,0,0,1,0-.5h9.05a.25.25,0,1,1,0,.5"/><path class="o" d="M16.52,30.82a.39.39,0,1,1-.38-.39.39.39,0,0,1,.38.39"/><path class="o" d="M26.91,28.46h-9a.25.25,0,0,1,0-.5h9.05a.25.25,0,1,1,0,.5"/><path class="o" d="M16.52,28.21a.39.39,0,1,1-.38-.38.38.38,0,0,1,.38.38"/><path class="o" d="M26.91,25.86h-9a.26.26,0,0,1,0-.51h9.05a.26.26,0,0,1,0,.51"/><path class="o" d="M16.52,25.6a.39.39,0,1,1-.38-.38.38.38,0,0,1,.38.38"/><path class="o" d="M26.91,33.68h-9a.25.25,0,0,1-.25-.25.26.26,0,0,1,.25-.26h9.05a.26.26,0,0,1,.25.26.25.25,0,0,1-.25.25"/><path class="o" d="M16.52,33.43a.39.39,0,0,1-.77,0,.39.39,0,1,1,.77,0"/><path class="o" d="M29.4,36.28H17.86a.25.25,0,0,1,0-.5H29.4a.25.25,0,1,1,0,.5"/><path class="o" d="M16.52,36a.39.39,0,1,1-.38-.38.38.38,0,0,1,.38.38"/><path class="o" d="M22.41,38.89H17.86a.25.25,0,0,1,0-.5h4.55a.25.25,0,0,1,0,.5"/><path class="o" d="M16.52,38.64a.39.39,0,1,1-.38-.39.39.39,0,0,1,.38.39"/><polygon class="p" points="30.97 32.8 32.97 34.53 40.03 26.6 37.77 24.66 30.97 32.8"/><polygon class="q" points="29.89 35.45 30.51 35.99 32.97 34.52 30.98 32.81 29.89 35.45"/><polygon class="p" points="46.83 18.45 44.83 16.73 37.77 24.66 40.03 26.6 46.83 18.45"/><path class="r" d="M44.82,16.72a1.33,1.33,0,0,1,2,1.74Z"/><g class="s"><path class="p" d="M42.12,25.66s3.28-1.43,5.53-6.5l-.52-.44-.88,1a11.48,11.48,0,0,1-4.66,5.46Z"/></g><g class="t"><polygon class="p" points="45.54 19.13 46.76 20.18 47.65 19.16 46.42 18.11 45.54 19.13"/></g><polygon class="o" points="37.7 24.72 39.97 26.68 40.14 26.48 37.87 24.52 37.7 24.72"/><path class="p" d="M30.51,36l-.63-.54-.22.56a.25.25,0,0,0,.33.29Z"/></svg>